<?xml version="1.0" encoding="UTF-8" standalone="no"?><svg xmlns="http://www.w3.org/2000/svg" xmlns:xlink="http://www.w3.org/1999/xlink" contentScriptType="application/ecmascript" contentStyleType="text/css" height="882px" preserveAspectRatio="none" style="width:426px;height:882px;" version="1.1" viewBox="0 0 426 882" width="426px" zoomAndPan="magnify"><defs><filter height="300%" id="fnyrbibo0cf68" width="300%" x="-1" y="-1"><feGaussianBlur result="blurOut" stdDeviation="2.0"/><feColorMatrix in="blurOut" result="blurOut2" type="matrix" values="0 0 0 0 0 0 0 0 0 0 0 0 0 0 0 0 0 0 .4 0"/><feOffset dx="4.0" dy="4.0" in="blurOut2" result="blurOut3"/><feBlend in="SourceGraphic" in2="blurOut3" mode="normal"/></filter></defs><g><!--MD5=[3639be13d1b156bc21f0b5d8693bb985]
class abstract_class--><rect codeLine="1" fill="#FEFECE" filter="url(#fnyrbibo0cf68)" height="75.6719" id="abstract_class" style="stroke:#A80036;stroke-width:1.5;" width="111" x="151.5" y="270"/><ellipse cx="166.5" cy="286" fill="#A9DCDF" rx="11" ry="11" style="stroke:#A80036;stroke-width:1.0;"/><path d="M168.6875,287.7656 L164.5469,287.7656 L164.125,288.7969 L164.5469,288.7969 Q165.1563,288.7969 165.4219,289.0313 Q165.6875,289.2656 165.6875,289.6563 Q165.6875,290.0313 165.4219,290.2656 Q165.1563,290.5 164.5469,290.5 L162.25,290.5 Q161.6406,290.5 161.3906,290.2656 Q161.125,290.0313 161.125,289.6406 Q161.125,289.2656 161.4063,289.0313 Q161.6719,288.7813 162.2969,288.7969 L164.9688,282.1406 L163.8594,282.1406 Q163.25,282.1406 162.9844,281.9063 Q162.7188,281.6719 162.7188,281.2813 Q162.7188,280.9063 162.9844,280.6719 Q163.25,280.4375 163.8594,280.4375 L167.5313,280.4375 L170.9219,288.7969 Q171.5156,288.7969 171.7031,288.9375 Q172.0938,289.2031 172.0938,289.6563 Q172.0938,290.0313 171.8281,290.2656 Q171.5781,290.5 170.9688,290.5 L168.6719,290.5 Q168.0625,290.5 167.7969,290.2656 Q167.5313,290.0313 167.5313,289.6406 Q167.5313,289.2656 167.7969,289.0313 Q168.0625,288.7969 168.6719,288.7969 L169.0938,288.7969 L168.6875,287.7656 Z M167.9688,286.0625 L166.6094,282.6875 L165.2344,286.0625 L167.9688,286.0625 Z " fill="#000000"/><text fill="#000000" font-family="sans-serif" font-size="12" font-style="italic" lengthAdjust="spacingAndGlyphs" textLength="79" x="180.5" y="290.9102">abstract_class</text><line style="stroke:#A80036;stroke-width:1.5;" x1="152.5" x2="261.5" y1="302" y2="302"/><text fill="#000000" font-family="sans-serif" font-size="11" lengthAdjust="spacingAndGlyphs" textLength="45" x="157.5" y="317.4189">signature</text><text fill="#000000" font-family="sans-serif" font-size="11" lengthAdjust="spacingAndGlyphs" textLength="24" x="157.5" y="331.2549">body</text><line style="stroke:#A80036;stroke-width:1.5;" x1="152.5" x2="261.5" y1="337.6719" y2="337.6719"/><!--MD5=[c4c892d05414254cdeba8adc63897f88]
class class--><rect codeLine="5" fill="#FEFECE" filter="url(#fnyrbibo0cf68)" height="48" id="class" style="stroke:#A80036;stroke-width:1.5;" width="60" x="198" y="407"/><ellipse cx="213" cy="423" fill="#A9DCDF" rx="11" ry="11" style="stroke:#A80036;stroke-width:1.0;"/><path d="M215.1875,424.7656 L211.0469,424.7656 L210.625,425.7969 L211.0469,425.7969 Q211.6563,425.7969 211.9219,426.0313 Q212.1875,426.2656 212.1875,426.6563 Q212.1875,427.0313 211.9219,427.2656 Q211.6563,427.5 211.0469,427.5 L208.75,427.5 Q208.1406,427.5 207.8906,427.2656 Q207.625,427.0313 207.625,426.6406 Q207.625,426.2656 207.9063,426.0313 Q208.1719,425.7813 208.7969,425.7969 L211.4688,419.1406 L210.3594,419.1406 Q209.75,419.1406 209.4844,418.9063 Q209.2188,418.6719 209.2188,418.2813 Q209.2188,417.9063 209.4844,417.6719 Q209.75,417.4375 210.3594,417.4375 L214.0313,417.4375 L217.4219,425.7969 Q218.0156,425.7969 218.2031,425.9375 Q218.5938,426.2031 218.5938,426.6563 Q218.5938,427.0313 218.3281,427.2656 Q218.0781,427.5 217.4688,427.5 L215.1719,427.5 Q214.5625,427.5 214.2969,427.2656 Q214.0313,427.0313 214.0313,426.6406 Q214.0313,426.2656 214.2969,426.0313 Q214.5625,425.7969 215.1719,425.7969 L215.5938,425.7969 L215.1875,424.7656 Z M214.4688,423.0625 L213.1094,419.6875 L211.7344,423.0625 L214.4688,423.0625 Z " fill="#000000"/><text fill="#000000" font-family="sans-serif" font-size="12" font-style="italic" lengthAdjust="spacingAndGlyphs" textLength="28" x="227" y="427.9102">class</text><line style="stroke:#A80036;stroke-width:1.5;" x1="199" x2="257" y1="439" y2="439"/><line style="stroke:#A80036;stroke-width:1.5;" x1="199" x2="257" y1="447" y2="447"/><!--MD5=[d9847530b5dea828dbcbb50914b76f30]
class interface--><rect codeLine="7" fill="#FEFECE" filter="url(#fnyrbibo0cf68)" height="61.8359" id="interface" style="stroke:#A80036;stroke-width:1.5;" width="115" x="297.5" y="277"/><ellipse cx="328.7" cy="293" fill="#A9DCDF" rx="11" ry="11" style="stroke:#A80036;stroke-width:1.0;"/><path d="M330.8875,294.7656 L326.7469,294.7656 L326.325,295.7969 L326.7469,295.7969 Q327.3563,295.7969 327.6219,296.0313 Q327.8875,296.2656 327.8875,296.6563 Q327.8875,297.0313 327.6219,297.2656 Q327.3563,297.5 326.7469,297.5 L324.45,297.5 Q323.8406,297.5 323.5906,297.2656 Q323.325,297.0313 323.325,296.6406 Q323.325,296.2656 323.6063,296.0313 Q323.8719,295.7813 324.4969,295.7969 L327.1688,289.1406 L326.0594,289.1406 Q325.45,289.1406 325.1844,288.9063 Q324.9188,288.6719 324.9188,288.2813 Q324.9188,287.9063 325.1844,287.6719 Q325.45,287.4375 326.0594,287.4375 L329.7313,287.4375 L333.1219,295.7969 Q333.7156,295.7969 333.9031,295.9375 Q334.2938,296.2031 334.2938,296.6563 Q334.2938,297.0313 334.0281,297.2656 Q333.7781,297.5 333.1688,297.5 L330.8719,297.5 Q330.2625,297.5 329.9969,297.2656 Q329.7313,297.0313 329.7313,296.6406 Q329.7313,296.2656 329.9969,296.0313 Q330.2625,295.7969 330.8719,295.7969 L331.2938,295.7969 L330.8875,294.7656 Z M330.1688,293.0625 L328.8094,289.6875 L327.4344,293.0625 L330.1688,293.0625 Z " fill="#000000"/><text fill="#000000" font-family="sans-serif" font-size="12" font-style="italic" lengthAdjust="spacingAndGlyphs" textLength="47" x="346.3" y="297.9102">interface</text><line style="stroke:#A80036;stroke-width:1.5;" x1="298.5" x2="411.5" y1="309" y2="309"/><text fill="#000000" font-family="sans-serif" font-size="11" lengthAdjust="spacingAndGlyphs" textLength="103" x="303.5" y="324.4189">type - intefrace name</text><line style="stroke:#A80036;stroke-width:1.5;" x1="298.5" x2="411.5" y1="330.8359" y2="330.8359"/><!--MD5=[62b75200b4f916413534817b9ee7f8a6]
class static_entity--><rect codeLine="10" fill="#FEFECE" filter="url(#fnyrbibo0cf68)" height="48" id="static_entity" style="stroke:#A80036;stroke-width:1.5;" width="96" x="20" y="284"/><ellipse cx="35" cy="300" fill="#A9DCDF" rx="11" ry="11" style="stroke:#A80036;stroke-width:1.0;"/><path d="M37.1875,301.7656 L33.0469,301.7656 L32.625,302.7969 L33.0469,302.7969 Q33.6563,302.7969 33.9219,303.0313 Q34.1875,303.2656 34.1875,303.6563 Q34.1875,304.0313 33.9219,304.2656 Q33.6563,304.5 33.0469,304.5 L30.75,304.5 Q30.1406,304.5 29.8906,304.2656 Q29.625,304.0313 29.625,303.6406 Q29.625,303.2656 29.9063,303.0313 Q30.1719,302.7813 30.7969,302.7969 L33.4688,296.1406 L32.3594,296.1406 Q31.75,296.1406 31.4844,295.9063 Q31.2188,295.6719 31.2188,295.2813 Q31.2188,294.9063 31.4844,294.6719 Q31.75,294.4375 32.3594,294.4375 L36.0313,294.4375 L39.4219,302.7969 Q40.0156,302.7969 40.2031,302.9375 Q40.5938,303.2031 40.5938,303.6563 Q40.5938,304.0313 40.3281,304.2656 Q40.0781,304.5 39.4688,304.5 L37.1719,304.5 Q36.5625,304.5 36.2969,304.2656 Q36.0313,304.0313 36.0313,303.6406 Q36.0313,303.2656 36.2969,303.0313 Q36.5625,302.7969 37.1719,302.7969 L37.5938,302.7969 L37.1875,301.7656 Z M36.4688,300.0625 L35.1094,296.6875 L33.7344,300.0625 L36.4688,300.0625 Z " fill="#000000"/><text fill="#000000" font-family="sans-serif" font-size="12" font-style="italic" lengthAdjust="spacingAndGlyphs" textLength="64" x="49" y="304.9102">static_entity</text><line style="stroke:#A80036;stroke-width:1.5;" x1="21" x2="115" y1="316" y2="316"/><line style="stroke:#A80036;stroke-width:1.5;" x1="21" x2="115" y1="324" y2="324"/><!--MD5=[f57c92c4805d242f4121a40a440ba821]
class variable--><rect codeLine="11" fill="#FEFECE" filter="url(#fnyrbibo0cf68)" height="61.8359" id="variable" style="stroke:#A80036;stroke-width:1.5;" width="77" x="305.5" y="7"/><ellipse cx="320.5" cy="23" fill="#A9DCDF" rx="11" ry="11" style="stroke:#A80036;stroke-width:1.0;"/><path d="M322.6875,24.7656 L318.5469,24.7656 L318.125,25.7969 L318.5469,25.7969 Q319.1563,25.7969 319.4219,26.0313 Q319.6875,26.2656 319.6875,26.6563 Q319.6875,27.0313 319.4219,27.2656 Q319.1563,27.5 318.5469,27.5 L316.25,27.5 Q315.6406,27.5 315.3906,27.2656 Q315.125,27.0313 315.125,26.6406 Q315.125,26.2656 315.4063,26.0313 Q315.6719,25.7813 316.2969,25.7969 L318.9688,19.1406 L317.8594,19.1406 Q317.25,19.1406 316.9844,18.9063 Q316.7188,18.6719 316.7188,18.2813 Q316.7188,17.9063 316.9844,17.6719 Q317.25,17.4375 317.8594,17.4375 L321.5313,17.4375 L324.9219,25.7969 Q325.5156,25.7969 325.7031,25.9375 Q326.0938,26.2031 326.0938,26.6563 Q326.0938,27.0313 325.8281,27.2656 Q325.5781,27.5 324.9688,27.5 L322.6719,27.5 Q322.0625,27.5 321.7969,27.2656 Q321.5313,27.0313 321.5313,26.6406 Q321.5313,26.2656 321.7969,26.0313 Q322.0625,25.7969 322.6719,25.7969 L323.0938,25.7969 L322.6875,24.7656 Z M321.9688,23.0625 L320.6094,19.6875 L319.2344,23.0625 L321.9688,23.0625 Z " fill="#000000"/><text fill="#000000" font-family="sans-serif" font-size="12" font-style="italic" lengthAdjust="spacingAndGlyphs" textLength="45" x="334.5" y="27.9102">variable</text><line style="stroke:#A80036;stroke-width:1.5;" x1="306.5" x2="381.5" y1="39" y2="39"/><text fill="#000000" font-family="sans-serif" font-size="11" lengthAdjust="spacingAndGlyphs" textLength="38" x="311.5" y="54.4189">name-id</text><line style="stroke:#A80036;stroke-width:1.5;" x1="306.5" x2="381.5" y1="60.8359" y2="60.8359"/><!--MD5=[857a356b9e77f83de603e0318f36b735]
class type--><rect codeLine="14" fill="#FEFECE" filter="url(#fnyrbibo0cf68)" height="48" id="type" style="stroke:#A80036;stroke-width:1.5;" width="55" x="316.5" y="154"/><ellipse cx="331.5" cy="170" fill="#A9DCDF" rx="11" ry="11" style="stroke:#A80036;stroke-width:1.0;"/><path d="M333.6875,171.7656 L329.5469,171.7656 L329.125,172.7969 L329.5469,172.7969 Q330.1563,172.7969 330.4219,173.0313 Q330.6875,173.2656 330.6875,173.6563 Q330.6875,174.0313 330.4219,174.2656 Q330.1563,174.5 329.5469,174.5 L327.25,174.5 Q326.6406,174.5 326.3906,174.2656 Q326.125,174.0313 326.125,173.6406 Q326.125,173.2656 326.4063,173.0313 Q326.6719,172.7813 327.2969,172.7969 L329.9688,166.1406 L328.8594,166.1406 Q328.25,166.1406 327.9844,165.9063 Q327.7188,165.6719 327.7188,165.2813 Q327.7188,164.9063 327.9844,164.6719 Q328.25,164.4375 328.8594,164.4375 L332.5313,164.4375 L335.9219,172.7969 Q336.5156,172.7969 336.7031,172.9375 Q337.0938,173.2031 337.0938,173.6563 Q337.0938,174.0313 336.8281,174.2656 Q336.5781,174.5 335.9688,174.5 L333.6719,174.5 Q333.0625,174.5 332.7969,174.2656 Q332.5313,174.0313 332.5313,173.6406 Q332.5313,173.2656 332.7969,173.0313 Q333.0625,172.7969 333.6719,172.7969 L334.0938,172.7969 L333.6875,171.7656 Z M332.9688,170.0625 L331.6094,166.6875 L330.2344,170.0625 L332.9688,170.0625 Z " fill="#000000"/><text fill="#000000" font-family="sans-serif" font-size="12" font-style="italic" lengthAdjust="spacingAndGlyphs" textLength="23" x="345.5" y="174.9102">type</text><line style="stroke:#A80036;stroke-width:1.5;" x1="317.5" x2="370.5" y1="186" y2="186"/><line style="stroke:#A80036;stroke-width:1.5;" x1="317.5" x2="370.5" y1="194" y2="194"/><!--MD5=[f42b146e1926d521b9358e53f30c06eb]
class object--><rect codeLine="16" fill="#FEFECE" filter="url(#fnyrbibo0cf68)" height="61.8359" id="object" style="stroke:#A80036;stroke-width:1.5;" width="65" x="203.5" y="147"/><ellipse cx="218.5" cy="163" fill="#ADD1B2" rx="11" ry="11" style="stroke:#A80036;stroke-width:1.0;"/><path d="M221.2656,158.875 Q221.4219,158.6563 221.6094,158.5469 Q221.7969,158.4375 222.0156,158.4375 Q222.3906,158.4375 222.625,158.7031 Q222.8594,158.9531 222.8594,159.5625 L222.8594,161.0156 Q222.8594,161.625 222.625,161.8906 Q222.3906,162.1563 222.0156,162.1563 Q221.6719,162.1563 221.4688,161.9531 Q221.2656,161.7656 221.1563,161.25 Q221.1094,160.8906 220.9219,160.7031 Q220.5938,160.3281 219.9844,160.1094 Q219.375,159.8906 218.75,159.8906 Q217.9844,159.8906 217.3438,160.2188 Q216.7188,160.5469 216.2188,161.2969 Q215.7344,162.0469 215.7344,163.0781 L215.7344,164.1719 Q215.7344,165.4063 216.625,166.2344 Q217.5156,167.0469 219.1094,167.0469 Q220.0469,167.0469 220.7031,166.7969 Q221.0938,166.6406 221.5156,166.2031 Q221.7813,165.9375 221.9219,165.8594 Q222.0781,165.7813 222.2813,165.7813 Q222.6094,165.7813 222.8594,166.0469 Q223.125,166.2969 223.125,166.6406 Q223.125,166.9844 222.7813,167.3906 Q222.2813,167.9688 221.4844,168.2969 Q220.4063,168.75 219.1094,168.75 Q217.5938,168.75 216.3906,168.125 Q215.4063,167.625 214.7188,166.5625 Q214.0313,165.4844 214.0313,164.2031 L214.0313,163.0469 Q214.0313,161.7188 214.6406,160.5781 Q215.2656,159.4219 216.3594,158.8125 Q217.4531,158.1875 218.6875,158.1875 Q219.4219,158.1875 220.0625,158.3594 Q220.7188,158.5156 221.2656,158.875 Z " fill="#000000"/><text fill="#000000" font-family="sans-serif" font-size="12" lengthAdjust="spacingAndGlyphs" textLength="33" x="232.5" y="167.9102">object</text><line style="stroke:#A80036;stroke-width:1.5;" x1="204.5" x2="267.5" y1="179" y2="179"/><text fill="#000000" font-family="sans-serif" font-size="11" lengthAdjust="spacingAndGlyphs" textLength="52" x="209.5" y="194.4189">address-id</text><line style="stroke:#A80036;stroke-width:1.5;" x1="204.5" x2="267.5" y1="200.8359" y2="200.8359"/><!--MD5=[275a61390beb28e47d229cd42893213f]
class method--><rect codeLine="20" fill="#FEFECE" filter="url(#fnyrbibo0cf68)" height="48" id="method" style="stroke:#A80036;stroke-width:1.5;" width="74" x="195" y="550.5"/><ellipse cx="210" cy="566.5" fill="#A9DCDF" rx="11" ry="11" style="stroke:#A80036;stroke-width:1.0;"/><path d="M212.1875,568.2656 L208.0469,568.2656 L207.625,569.2969 L208.0469,569.2969 Q208.6563,569.2969 208.9219,569.5313 Q209.1875,569.7656 209.1875,570.1563 Q209.1875,570.5313 208.9219,570.7656 Q208.6563,571 208.0469,571 L205.75,571 Q205.1406,571 204.8906,570.7656 Q204.625,570.5313 204.625,570.1406 Q204.625,569.7656 204.9063,569.5313 Q205.1719,569.2813 205.7969,569.2969 L208.4688,562.6406 L207.3594,562.6406 Q206.75,562.6406 206.4844,562.4063 Q206.2188,562.1719 206.2188,561.7813 Q206.2188,561.4063 206.4844,561.1719 Q206.75,560.9375 207.3594,560.9375 L211.0313,560.9375 L214.4219,569.2969 Q215.0156,569.2969 215.2031,569.4375 Q215.5938,569.7031 215.5938,570.1563 Q215.5938,570.5313 215.3281,570.7656 Q215.0781,571 214.4688,571 L212.1719,571 Q211.5625,571 211.2969,570.7656 Q211.0313,570.5313 211.0313,570.1406 Q211.0313,569.7656 211.2969,569.5313 Q211.5625,569.2969 212.1719,569.2969 L212.5938,569.2969 L212.1875,568.2656 Z M211.4688,566.5625 L210.1094,563.1875 L208.7344,566.5625 L211.4688,566.5625 Z " fill="#000000"/><text fill="#000000" font-family="sans-serif" font-size="12" font-style="italic" lengthAdjust="spacingAndGlyphs" textLength="42" x="224" y="571.4102">method</text><line style="stroke:#A80036;stroke-width:1.5;" x1="196" x2="268" y1="582.5" y2="582.5"/><line style="stroke:#A80036;stroke-width:1.5;" x1="196" x2="268" y1="590.5" y2="590.5"/><!--MD5=[1664d8c028954a7b96a00c0492bba2ed]
class signature--><rect codeLine="21" fill="#FEFECE" filter="url(#fnyrbibo0cf68)" height="117.1797" id="signature" style="stroke:#A80036;stroke-width:1.5;" width="93" x="306.5" y="516"/><ellipse cx="326" cy="532" fill="#A9DCDF" rx="11" ry="11" style="stroke:#A80036;stroke-width:1.0;"/><path d="M328.1875,533.7656 L324.0469,533.7656 L323.625,534.7969 L324.0469,534.7969 Q324.6563,534.7969 324.9219,535.0313 Q325.1875,535.2656 325.1875,535.6563 Q325.1875,536.0313 324.9219,536.2656 Q324.6563,536.5 324.0469,536.5 L321.75,536.5 Q321.1406,536.5 320.8906,536.2656 Q320.625,536.0313 320.625,535.6406 Q320.625,535.2656 320.9063,535.0313 Q321.1719,534.7813 321.7969,534.7969 L324.4688,528.1406 L323.3594,528.1406 Q322.75,528.1406 322.4844,527.9063 Q322.2188,527.6719 322.2188,527.2813 Q322.2188,526.9063 322.4844,526.6719 Q322.75,526.4375 323.3594,526.4375 L327.0313,526.4375 L330.4219,534.7969 Q331.0156,534.7969 331.2031,534.9375 Q331.5938,535.2031 331.5938,535.6563 Q331.5938,536.0313 331.3281,536.2656 Q331.0781,536.5 330.4688,536.5 L328.1719,536.5 Q327.5625,536.5 327.2969,536.2656 Q327.0313,536.0313 327.0313,535.6406 Q327.0313,535.2656 327.2969,535.0313 Q327.5625,534.7969 328.1719,534.7969 L328.5938,534.7969 L328.1875,533.7656 Z M327.4688,532.0625 L326.1094,528.6875 L324.7344,532.0625 L327.4688,532.0625 Z " fill="#000000"/><text fill="#000000" font-family="sans-serif" font-size="12" font-style="italic" lengthAdjust="spacingAndGlyphs" textLength="51" x="341" y="536.9102">signature</text><line style="stroke:#A80036;stroke-width:1.5;" x1="307.5" x2="398.5" y1="548" y2="548"/><text fill="#000000" font-family="sans-serif" font-size="11" lengthAdjust="spacingAndGlyphs" textLength="81" x="312.5" y="563.4189">access modyfier</text><text fill="#000000" font-family="sans-serif" font-size="11" lengthAdjust="spacingAndGlyphs" textLength="69" x="312.5" y="577.2549">static/dynamic</text><text fill="#000000" font-family="sans-serif" font-size="11" lengthAdjust="spacingAndGlyphs" textLength="53" x="312.5" y="591.0908">return type</text><text fill="#000000" font-family="sans-serif" font-size="11" lengthAdjust="spacingAndGlyphs" textLength="26" x="312.5" y="604.9268">name</text><text fill="#000000" font-family="sans-serif" font-size="11" lengthAdjust="spacingAndGlyphs" textLength="76" x="312.5" y="618.7627">args - variables</text><line style="stroke:#A80036;stroke-width:1.5;" x1="307.5" x2="398.5" y1="625.1797" y2="625.1797"/><!--MD5=[ce8f29c002075e81b8763d5bce0a5bac]
class body--><rect codeLine="28" fill="#FEFECE" filter="url(#fnyrbibo0cf68)" height="48" id="body" style="stroke:#A80036;stroke-width:1.5;" width="60" x="100" y="550.5"/><ellipse cx="115" cy="566.5" fill="#A9DCDF" rx="11" ry="11" style="stroke:#A80036;stroke-width:1.0;"/><path d="M117.1875,568.2656 L113.0469,568.2656 L112.625,569.2969 L113.0469,569.2969 Q113.6563,569.2969 113.9219,569.5313 Q114.1875,569.7656 114.1875,570.1563 Q114.1875,570.5313 113.9219,570.7656 Q113.6563,571 113.0469,571 L110.75,571 Q110.1406,571 109.8906,570.7656 Q109.625,570.5313 109.625,570.1406 Q109.625,569.7656 109.9063,569.5313 Q110.1719,569.2813 110.7969,569.2969 L113.4688,562.6406 L112.3594,562.6406 Q111.75,562.6406 111.4844,562.4063 Q111.2188,562.1719 111.2188,561.7813 Q111.2188,561.4063 111.4844,561.1719 Q111.75,560.9375 112.3594,560.9375 L116.0313,560.9375 L119.4219,569.2969 Q120.0156,569.2969 120.2031,569.4375 Q120.5938,569.7031 120.5938,570.1563 Q120.5938,570.5313 120.3281,570.7656 Q120.0781,571 119.4688,571 L117.1719,571 Q116.5625,571 116.2969,570.7656 Q116.0313,570.5313 116.0313,570.1406 Q116.0313,569.7656 116.2969,569.5313 Q116.5625,569.2969 117.1719,569.2969 L117.5938,569.2969 L117.1875,568.2656 Z M116.4688,566.5625 L115.1094,563.1875 L113.7344,566.5625 L116.4688,566.5625 Z " fill="#000000"/><text fill="#000000" font-family="sans-serif" font-size="12" font-style="italic" lengthAdjust="spacingAndGlyphs" textLength="28" x="129" y="571.4102">body</text><line style="stroke:#A80036;stroke-width:1.5;" x1="101" x2="159" y1="582.5" y2="582.5"/><line style="stroke:#A80036;stroke-width:1.5;" x1="101" x2="159" y1="590.5" y2="590.5"/><!--MD5=[733ad65a2c08423a5ac87a2d99e70927]
class static_method--><rect codeLine="29" fill="#FEFECE" filter="url(#fnyrbibo0cf68)" height="48" id="static_method" style="stroke:#A80036;stroke-width:1.5;" width="109" x="241.5" y="694"/><ellipse cx="256.5" cy="710" fill="#A9DCDF" rx="11" ry="11" style="stroke:#A80036;stroke-width:1.0;"/><path d="M258.6875,711.7656 L254.5469,711.7656 L254.125,712.7969 L254.5469,712.7969 Q255.1563,712.7969 255.4219,713.0313 Q255.6875,713.2656 255.6875,713.6563 Q255.6875,714.0313 255.4219,714.2656 Q255.1563,714.5 254.5469,714.5 L252.25,714.5 Q251.6406,714.5 251.3906,714.2656 Q251.125,714.0313 251.125,713.6406 Q251.125,713.2656 251.4063,713.0313 Q251.6719,712.7813 252.2969,712.7969 L254.9688,706.1406 L253.8594,706.1406 Q253.25,706.1406 252.9844,705.9063 Q252.7188,705.6719 252.7188,705.2813 Q252.7188,704.9063 252.9844,704.6719 Q253.25,704.4375 253.8594,704.4375 L257.5313,704.4375 L260.9219,712.7969 Q261.5156,712.7969 261.7031,712.9375 Q262.0938,713.2031 262.0938,713.6563 Q262.0938,714.0313 261.8281,714.2656 Q261.5781,714.5 260.9688,714.5 L258.6719,714.5 Q258.0625,714.5 257.7969,714.2656 Q257.5313,714.0313 257.5313,713.6406 Q257.5313,713.2656 257.7969,713.0313 Q258.0625,712.7969 258.6719,712.7969 L259.0938,712.7969 L258.6875,711.7656 Z M257.9688,710.0625 L256.6094,706.6875 L255.2344,710.0625 L257.9688,710.0625 Z " fill="#000000"/><text fill="#000000" font-family="sans-serif" font-size="12" font-style="italic" lengthAdjust="spacingAndGlyphs" textLength="77" x="270.5" y="714.9102">static_method</text><line style="stroke:#A80036;stroke-width:1.5;" x1="242.5" x2="349.5" y1="726" y2="726"/><line style="stroke:#A80036;stroke-width:1.5;" x1="242.5" x2="349.5" y1="734" y2="734"/><!--MD5=[8f6ef659338005c1fd9a4618f52ffe0d]
class dynamic_method--><rect codeLine="30" fill="#FEFECE" filter="url(#fnyrbibo0cf68)" height="48" id="dynamic_method" style="stroke:#A80036;stroke-width:1.5;" width="128" x="78" y="694"/><ellipse cx="93" cy="710" fill="#A9DCDF" rx="11" ry="11" style="stroke:#A80036;stroke-width:1.0;"/><path d="M95.1875,711.7656 L91.0469,711.7656 L90.625,712.7969 L91.0469,712.7969 Q91.6563,712.7969 91.9219,713.0313 Q92.1875,713.2656 92.1875,713.6563 Q92.1875,714.0313 91.9219,714.2656 Q91.6563,714.5 91.0469,714.5 L88.75,714.5 Q88.1406,714.5 87.8906,714.2656 Q87.625,714.0313 87.625,713.6406 Q87.625,713.2656 87.9063,713.0313 Q88.1719,712.7813 88.7969,712.7969 L91.4688,706.1406 L90.3594,706.1406 Q89.75,706.1406 89.4844,705.9063 Q89.2188,705.6719 89.2188,705.2813 Q89.2188,704.9063 89.4844,704.6719 Q89.75,704.4375 90.3594,704.4375 L94.0313,704.4375 L97.4219,712.7969 Q98.0156,712.7969 98.2031,712.9375 Q98.5938,713.2031 98.5938,713.6563 Q98.5938,714.0313 98.3281,714.2656 Q98.0781,714.5 97.4688,714.5 L95.1719,714.5 Q94.5625,714.5 94.2969,714.2656 Q94.0313,714.0313 94.0313,713.6406 Q94.0313,713.2656 94.2969,713.0313 Q94.5625,712.7969 95.1719,712.7969 L95.5938,712.7969 L95.1875,711.7656 Z M94.4688,710.0625 L93.1094,706.6875 L91.7344,710.0625 L94.4688,710.0625 Z " fill="#000000"/><text fill="#000000" font-family="sans-serif" font-size="12" font-style="italic" lengthAdjust="spacingAndGlyphs" textLength="96" x="107" y="714.9102">dynamic_method</text><line style="stroke:#A80036;stroke-width:1.5;" x1="79" x2="205" y1="726" y2="726"/><line style="stroke:#A80036;stroke-width:1.5;" x1="79" x2="205" y1="734" y2="734"/><!--MD5=[149d21ba6d1d7386f3588e7158fb8c4f]
class constructor--><rect codeLine="31" fill="#FEFECE" filter="url(#fnyrbibo0cf68)" height="48" id="constructor" style="stroke:#A80036;stroke-width:1.5;" width="92" x="250" y="820"/><ellipse cx="265" cy="836" fill="#A9DCDF" rx="11" ry="11" style="stroke:#A80036;stroke-width:1.0;"/><path d="M267.1875,837.7656 L263.0469,837.7656 L262.625,838.7969 L263.0469,838.7969 Q263.6563,838.7969 263.9219,839.0313 Q264.1875,839.2656 264.1875,839.6563 Q264.1875,840.0313 263.9219,840.2656 Q263.6563,840.5 263.0469,840.5 L260.75,840.5 Q260.1406,840.5 259.8906,840.2656 Q259.625,840.0313 259.625,839.6406 Q259.625,839.2656 259.9063,839.0313 Q260.1719,838.7813 260.7969,838.7969 L263.4688,832.1406 L262.3594,832.1406 Q261.75,832.1406 261.4844,831.9063 Q261.2188,831.6719 261.2188,831.2813 Q261.2188,830.9063 261.4844,830.6719 Q261.75,830.4375 262.3594,830.4375 L266.0313,830.4375 L269.4219,838.7969 Q270.0156,838.7969 270.2031,838.9375 Q270.5938,839.2031 270.5938,839.6563 Q270.5938,840.0313 270.3281,840.2656 Q270.0781,840.5 269.4688,840.5 L267.1719,840.5 Q266.5625,840.5 266.2969,840.2656 Q266.0313,840.0313 266.0313,839.6406 Q266.0313,839.2656 266.2969,839.0313 Q266.5625,838.7969 267.1719,838.7969 L267.5938,838.7969 L267.1875,837.7656 Z M266.4688,836.0625 L265.1094,832.6875 L263.7344,836.0625 L266.4688,836.0625 Z " fill="#000000"/><text fill="#000000" font-family="sans-serif" font-size="12" font-style="italic" lengthAdjust="spacingAndGlyphs" textLength="60" x="279" y="840.9102">constructor</text><line style="stroke:#A80036;stroke-width:1.5;" x1="251" x2="341" y1="852" y2="852"/><line style="stroke:#A80036;stroke-width:1.5;" x1="251" x2="341" y1="860" y2="860"/><!--MD5=[446df8c8d1b7a8aee25a63971cfd0f77]
class _object--><rect fill="#FEFECE" filter="url(#fnyrbibo0cf68)" height="48" id="_object" style="stroke:#A80036;stroke-width:1.5;" width="72" x="106" y="820"/><ellipse cx="121" cy="836" fill="#ADD1B2" rx="11" ry="11" style="stroke:#A80036;stroke-width:1.0;"/><path d="M123.7656,831.875 Q123.9219,831.6563 124.1094,831.5469 Q124.2969,831.4375 124.5156,831.4375 Q124.8906,831.4375 125.125,831.7031 Q125.3594,831.9531 125.3594,832.5625 L125.3594,834.0156 Q125.3594,834.625 125.125,834.8906 Q124.8906,835.1563 124.5156,835.1563 Q124.1719,835.1563 123.9688,834.9531 Q123.7656,834.7656 123.6563,834.25 Q123.6094,833.8906 123.4219,833.7031 Q123.0938,833.3281 122.4844,833.1094 Q121.875,832.8906 121.25,832.8906 Q120.4844,832.8906 119.8438,833.2188 Q119.2188,833.5469 118.7188,834.2969 Q118.2344,835.0469 118.2344,836.0781 L118.2344,837.1719 Q118.2344,838.4063 119.125,839.2344 Q120.0156,840.0469 121.6094,840.0469 Q122.5469,840.0469 123.2031,839.7969 Q123.5938,839.6406 124.0156,839.2031 Q124.2813,838.9375 124.4219,838.8594 Q124.5781,838.7813 124.7813,838.7813 Q125.1094,838.7813 125.3594,839.0469 Q125.625,839.2969 125.625,839.6406 Q125.625,839.9844 125.2813,840.3906 Q124.7813,840.9688 123.9844,841.2969 Q122.9063,841.75 121.6094,841.75 Q120.0938,841.75 118.8906,841.125 Q117.9063,840.625 117.2188,839.5625 Q116.5313,838.4844 116.5313,837.2031 L116.5313,836.0469 Q116.5313,834.7188 117.1406,833.5781 Q117.7656,832.4219 118.8594,831.8125 Q119.9531,831.1875 121.1875,831.1875 Q121.9219,831.1875 122.5625,831.3594 Q123.2188,831.5156 123.7656,831.875 Z " fill="#000000"/><text fill="#000000" font-family="sans-serif" font-size="12" lengthAdjust="spacingAndGlyphs" textLength="40" x="135" y="840.9102">_object</text><line style="stroke:#A80036;stroke-width:1.5;" x1="107" x2="177" y1="852" y2="852"/><line style="stroke:#A80036;stroke-width:1.5;" x1="107" x2="177" y1="860" y2="860"/><!--MD5=[20948959334b74d2b41cb3368e9a156b]
class ram--><rect fill="#FEFECE" filter="url(#fnyrbibo0cf68)" height="48" id="ram" style="stroke:#A80036;stroke-width:1.5;" width="54" x="7" y="154"/><ellipse cx="22" cy="170" fill="#ADD1B2" rx="11" ry="11" style="stroke:#A80036;stroke-width:1.0;"/><path d="M24.7656,165.875 Q24.9219,165.6563 25.1094,165.5469 Q25.2969,165.4375 25.5156,165.4375 Q25.8906,165.4375 26.125,165.7031 Q26.3594,165.9531 26.3594,166.5625 L26.3594,168.0156 Q26.3594,168.625 26.125,168.8906 Q25.8906,169.1563 25.5156,169.1563 Q25.1719,169.1563 24.9688,168.9531 Q24.7656,168.7656 24.6563,168.25 Q24.6094,167.8906 24.4219,167.7031 Q24.0938,167.3281 23.4844,167.1094 Q22.875,166.8906 22.25,166.8906 Q21.4844,166.8906 20.8438,167.2188 Q20.2188,167.5469 19.7188,168.2969 Q19.2344,169.0469 19.2344,170.0781 L19.2344,171.1719 Q19.2344,172.4063 20.125,173.2344 Q21.0156,174.0469 22.6094,174.0469 Q23.5469,174.0469 24.2031,173.7969 Q24.5938,173.6406 25.0156,173.2031 Q25.2813,172.9375 25.4219,172.8594 Q25.5781,172.7813 25.7813,172.7813 Q26.1094,172.7813 26.3594,173.0469 Q26.625,173.2969 26.625,173.6406 Q26.625,173.9844 26.2813,174.3906 Q25.7813,174.9688 24.9844,175.2969 Q23.9063,175.75 22.6094,175.75 Q21.0938,175.75 19.8906,175.125 Q18.9063,174.625 18.2188,173.5625 Q17.5313,172.4844 17.5313,171.2031 L17.5313,170.0469 Q17.5313,168.7188 18.1406,167.5781 Q18.7656,166.4219 19.8594,165.8125 Q20.9531,165.1875 22.1875,165.1875 Q22.9219,165.1875 23.5625,165.3594 Q24.2188,165.5156 24.7656,165.875 Z " fill="#000000"/><text fill="#000000" font-family="sans-serif" font-size="12" lengthAdjust="spacingAndGlyphs" textLength="22" x="36" y="174.9102">ram</text><line style="stroke:#A80036;stroke-width:1.5;" x1="8" x2="60" y1="186" y2="186"/><line style="stroke:#A80036;stroke-width:1.5;" x1="8" x2="60" y1="194" y2="194"/><!--MD5=[f27077137eab0e82a7b59043e498cc27]
class system--><rect fill="#FEFECE" filter="url(#fnyrbibo0cf68)" height="48" id="system" style="stroke:#A80036;stroke-width:1.5;" width="72" x="96" y="154"/><ellipse cx="111" cy="170" fill="#ADD1B2" rx="11" ry="11" style="stroke:#A80036;stroke-width:1.0;"/><path d="M113.7656,165.875 Q113.9219,165.6563 114.1094,165.5469 Q114.2969,165.4375 114.5156,165.4375 Q114.8906,165.4375 115.125,165.7031 Q115.3594,165.9531 115.3594,166.5625 L115.3594,168.0156 Q115.3594,168.625 115.125,168.8906 Q114.8906,169.1563 114.5156,169.1563 Q114.1719,169.1563 113.9688,168.9531 Q113.7656,168.7656 113.6563,168.25 Q113.6094,167.8906 113.4219,167.7031 Q113.0938,167.3281 112.4844,167.1094 Q111.875,166.8906 111.25,166.8906 Q110.4844,166.8906 109.8438,167.2188 Q109.2188,167.5469 108.7188,168.2969 Q108.2344,169.0469 108.2344,170.0781 L108.2344,171.1719 Q108.2344,172.4063 109.125,173.2344 Q110.0156,174.0469 111.6094,174.0469 Q112.5469,174.0469 113.2031,173.7969 Q113.5938,173.6406 114.0156,173.2031 Q114.2813,172.9375 114.4219,172.8594 Q114.5781,172.7813 114.7813,172.7813 Q115.1094,172.7813 115.3594,173.0469 Q115.625,173.2969 115.625,173.6406 Q115.625,173.9844 115.2813,174.3906 Q114.7813,174.9688 113.9844,175.2969 Q112.9063,175.75 111.6094,175.75 Q110.0938,175.75 108.8906,175.125 Q107.9063,174.625 107.2188,173.5625 Q106.5313,172.4844 106.5313,171.2031 L106.5313,170.0469 Q106.5313,168.7188 107.1406,167.5781 Q107.7656,166.4219 108.8594,165.8125 Q109.9531,165.1875 111.1875,165.1875 Q111.9219,165.1875 112.5625,165.3594 Q113.2188,165.5156 113.7656,165.875 Z " fill="#000000"/><text fill="#000000" font-family="sans-serif" font-size="12" lengthAdjust="spacingAndGlyphs" textLength="40" x="125" y="174.9102">system</text><line style="stroke:#A80036;stroke-width:1.5;" x1="97" x2="167" y1="186" y2="186"/><line style="stroke:#A80036;stroke-width:1.5;" x1="97" x2="167" y1="194" y2="194"/><!--MD5=[584a679bd4862b7ad655b1a64ba8566d]
class dynamic_entity--><rect fill="#FEFECE" filter="url(#fnyrbibo0cf68)" height="48" id="dynamic_entity" style="stroke:#A80036;stroke-width:1.5;" width="113" x="157.5" y="14"/><ellipse cx="172.5" cy="30" fill="#ADD1B2" rx="11" ry="11" style="stroke:#A80036;stroke-width:1.0;"/><path d="M175.2656,25.875 Q175.4219,25.6563 175.6094,25.5469 Q175.7969,25.4375 176.0156,25.4375 Q176.3906,25.4375 176.625,25.7031 Q176.8594,25.9531 176.8594,26.5625 L176.8594,28.0156 Q176.8594,28.625 176.625,28.8906 Q176.3906,29.1563 176.0156,29.1563 Q175.6719,29.1563 175.4688,28.9531 Q175.2656,28.7656 175.1563,28.25 Q175.1094,27.8906 174.9219,27.7031 Q174.5938,27.3281 173.9844,27.1094 Q173.375,26.8906 172.75,26.8906 Q171.9844,26.8906 171.3438,27.2188 Q170.7188,27.5469 170.2188,28.2969 Q169.7344,29.0469 169.7344,30.0781 L169.7344,31.1719 Q169.7344,32.4063 170.625,33.2344 Q171.5156,34.0469 173.1094,34.0469 Q174.0469,34.0469 174.7031,33.7969 Q175.0938,33.6406 175.5156,33.2031 Q175.7813,32.9375 175.9219,32.8594 Q176.0781,32.7813 176.2813,32.7813 Q176.6094,32.7813 176.8594,33.0469 Q177.125,33.2969 177.125,33.6406 Q177.125,33.9844 176.7813,34.3906 Q176.2813,34.9688 175.4844,35.2969 Q174.4063,35.75 173.1094,35.75 Q171.5938,35.75 170.3906,35.125 Q169.4063,34.625 168.7188,33.5625 Q168.0313,32.4844 168.0313,31.2031 L168.0313,30.0469 Q168.0313,28.7188 168.6406,27.5781 Q169.2656,26.4219 170.3594,25.8125 Q171.4531,25.1875 172.6875,25.1875 Q173.4219,25.1875 174.0625,25.3594 Q174.7188,25.5156 175.2656,25.875 Z " fill="#000000"/><text fill="#000000" font-family="sans-serif" font-size="12" lengthAdjust="spacingAndGlyphs" textLength="81" x="186.5" y="34.9102">dynamic_entity</text><line style="stroke:#A80036;stroke-width:1.5;" x1="158.5" x2="269.5" y1="46" y2="46"/><line style="stroke:#A80036;stroke-width:1.5;" x1="158.5" x2="269.5" y1="54" y2="54"/><!--MD5=[45e06e740e4d23d6e2c1d754a9c8f3ef]
reverse link static_entity to abstract_class--><path codeLine="33" d="M136.11,308 C141.15,308 146.19,308 151.22,308 " fill="none" id="static_entity-backto-abstract_class" style="stroke:#A80036;stroke-width:1.0;"/><polygon fill="none" points="136.05,315,116.05,308,136.05,301,136.05,315" style="stroke:#A80036;stroke-width:1.0;"/><!--MD5=[481cd585504b73c84a4a0e886faa527a]
reverse link abstract_class to class--><path codeLine="34" d="M216.91,366.09 C219.4,380.46 221.94,395.09 223.96,406.72 " fill="none" id="abstract_class-backto-class" style="stroke:#A80036;stroke-width:1.0;"/><polygon fill="none" points="210,367.19,213.47,346.29,223.79,364.8,210,367.19" style="stroke:#A80036;stroke-width:1.0;"/><!--MD5=[ad29ced869d4a1aa405ce288b87b384c]
link class to method--><path codeLine="35" d="M228.9795,467.0455 C228.9795,467.0455 230.38,516.16 230.98,537.41 " fill="none" id="class-method" style="stroke:#A80036;stroke-width:1.0;"/><polygon fill="#A80036" points="231.35,550.46,235.1013,541.3535,231.2127,545.4619,227.1043,541.5732,231.35,550.46" style="stroke:#A80036;stroke-width:1.0;"/><line style="stroke:#A80036;stroke-width:1.0;" x1="231.2127" x2="230.98" y1="545.4619" y2="537.465"/><polygon fill="#FFFFFF" points="228.65,455.05,224.8163,461.1576,228.9795,467.0455,232.8133,460.9379,228.65,455.05" style="stroke:#A80036;stroke-width:1.0;"/><!--MD5=[a9e2c1d3a17da1b27cd1b84bb8d552d7]
link method to signature--><path codeLine="36" d="M269.34,574.5 C279.92,574.5 290.5,574.5 301.07,574.5 " fill="none" id="method-to-signature" style="stroke:#A80036;stroke-width:1.0;"/><polygon fill="#A80036" points="306.27,574.5,297.27,570.5,301.27,574.5,297.27,578.5,306.27,574.5" style="stroke:#A80036;stroke-width:1.0;"/><!--MD5=[9b672a3c19ab4601e865707d8730834d]
reverse link body to method--><path codeLine="37" d="M165.4,574.5 C175.18,574.5 184.96,574.5 194.74,574.5 " fill="none" id="body-backto-method" style="stroke:#A80036;stroke-width:1.0;"/><polygon fill="#A80036" points="160.28,574.5,169.28,578.5,165.28,574.5,169.28,570.5,160.28,574.5" style="stroke:#A80036;stroke-width:1.0;"/><!--MD5=[8b6ccd6793693c349f44bef9461ec4fe]
reverse link method to static_method--><path codeLine="38" d="M250.81,617.09 C262.16,642.18 276.19,673.2 285.58,693.96 " fill="none" id="method-backto-static_method" style="stroke:#A80036;stroke-width:1.0;"/><polygon fill="none" points="244.29,619.66,242.43,598.55,257.05,613.89,244.29,619.66" style="stroke:#A80036;stroke-width:1.0;"/><!--MD5=[39c33fd2defefb14cac10a2a056ec6f0]
reverse link static_method to constructor--><path codeLine="39" d="M296,762.23 C296,781.54 296,803.52 296,819.67 " fill="none" id="static_method-backto-constructor" style="stroke:#A80036;stroke-width:1.0;"/><polygon fill="none" points="289,762.03,296,742.03,303,762.03,289,762.03" style="stroke:#A80036;stroke-width:1.0;"/><!--MD5=[793f0a94daa9c33bf243148f49041ab1]
reverse link method to dynamic_method--><path codeLine="40" d="M206.49,615.61 C190.37,640.95 170.12,672.79 156.65,693.96 " fill="none" id="method-backto-dynamic_method" style="stroke:#A80036;stroke-width:1.0;"/><polygon fill="none" points="200.7,611.67,217.34,598.55,212.51,619.18,200.7,611.67" style="stroke:#A80036;stroke-width:1.0;"/><!--MD5=[d05867c02590a2f59197f2b2e4478cb1]
reverse link dynamic_method to _object--><path codeLine="41" d="M142,747.14 C142,769.04 142,799.09 142,819.67 " fill="none" id="dynamic_method-backto-_object" style="stroke:#A80036;stroke-width:1.0;"/><polygon fill="#A80036" points="142,742.03,138,751.03,142,747.03,146,751.03,142,742.03" style="stroke:#A80036;stroke-width:1.0;"/><text fill="#000000" font-family="sans-serif" font-size="13" lengthAdjust="spacingAndGlyphs" textLength="16" x="143" y="786.4951">vm</text><!--MD5=[657b9e8a3f781790f780156b4df5433c]
reverse link abstract_class to interface--><path codeLine="42" d="M283.05,308 C287.82,308 292.6,308 297.37,308 " fill="none" id="abstract_class-backto-interface" style="stroke:#A80036;stroke-width:1.0;"/><polygon fill="none" points="282.79,315,262.79,308,282.79,301,282.79,315" style="stroke:#A80036;stroke-width:1.0;"/><!--MD5=[2a9d202223e9686d10eabc6664a592e1]
link interface to signature--><path codeLine="43" d="M354.6777,351.0796 C354.6777,351.0796 353.9,454.81 353.54,502.7 " fill="none" id="interface-signature" style="stroke:#A80036;stroke-width:1.0;"/><polygon fill="#A80036" points="353.44,515.81,357.5091,506.841,353.4785,510.8101,349.5093,506.7795,353.44,515.81" style="stroke:#A80036;stroke-width:1.0;"/><line style="stroke:#A80036;stroke-width:1.0;" x1="353.4785" x2="353.53" y1="510.8101" y2="502.815"/><polygon fill="#FFFFFF" points="354.77,339.08,350.724,345.0491,354.6777,351.0796,358.7237,345.1106,354.77,339.08" style="stroke:#A80036;stroke-width:1.0;"/><!--MD5=[b434c853ecaa4133c3d259a61c1ece94]
link object to abstract_class--><path codeLine="44" d="M226.25,222.05 C223.69,233.32 218.0692,258.1461 218.0692,258.1461 " fill="none" id="object-abstract_class" style="stroke:#A80036;stroke-width:1.0;"/><polygon fill="#FFFFFF" points="215.42,269.85,220.6459,264.8811,218.0692,258.1461,212.8433,263.115,215.42,269.85" style="stroke:#A80036;stroke-width:1.0;"/><polygon fill="#A80036" points="229.2,209.01,223.3118,216.9049,228.0962,213.8866,231.1144,218.671,229.2,209.01" style="stroke:#A80036;stroke-width:1.0;"/><line style="stroke:#A80036;stroke-width:1.0;" x1="228.0962" x2="226.33" y1="213.8866" y2="221.685"/><!--MD5=[0715c18551998d754b4b9d3acc3848f3]
link ram to system--><path codeLine="46" d="M61.18,178 C71,178 80.81,178 90.63,178 " fill="none" id="ram-to-system" style="stroke:#A80036;stroke-width:1.0;"/><polygon fill="#A80036" points="95.76,178,86.76,174,90.76,178,86.76,182,95.76,178" style="stroke:#A80036;stroke-width:1.0;"/><!--MD5=[8ef26e37a3cbe3a2b60e07758886e77b]
link system to object--><path codeLine="47" d="M180.16,178 C180.16,178 187.34,178 190.32,178 " fill="none" id="system-object" style="stroke:#A80036;stroke-width:1.0;"/><polygon fill="#A80036" points="203.4,178,194.4,174,198.4,178,194.4,182,203.4,178" style="stroke:#A80036;stroke-width:1.0;"/><line style="stroke:#A80036;stroke-width:1.0;" x1="198.4" x2="190.4" y1="178" y2="178"/><polygon fill="#A80036" points="168.16,178,174.16,182,180.16,178,174.16,174,168.16,178" style="stroke:#A80036;stroke-width:1.0;"/><!--MD5=[090d89f348d00d30cb5dbd949d9683d8]
link dynamic_entity to object--><path codeLine="48" d="M217.68,62.1 C220.49,79.72 224.46,104.64 227.99,126.78 " fill="none" id="dynamic_entity-to-object" style="stroke:#A80036;stroke-width:1.0;"/><polygon fill="none" points="234.95,125.96,231.19,146.81,221.13,128.17,234.95,125.96" style="stroke:#A80036;stroke-width:1.0;"/><!--MD5=[e66df865db2978080aa9c434216f52e4]
link object to type--><path codeLine="49" d="M268.91,178 C283.01,178 297.12,178 311.23,178 " fill="none" id="object-to-type" style="stroke:#A80036;stroke-width:1.0;"/><polygon fill="#A80036" points="316.43,178,307.43,174,311.43,178,307.43,182,316.43,178" style="stroke:#A80036;stroke-width:1.0;"/><!--MD5=[f61366fadd36dc51d3fdb5780babef14]
link variable to object--><path codeLine="50" d="M320.3,69.28 C303.35,90.95 280.51,120.13 262.87,142.66 " fill="none" id="variable-to-object" style="stroke:#A80036;stroke-width:1.0;"/><polygon fill="#A80036" points="259.65,146.79,268.3468,142.1677,262.7315,142.8525,262.0468,137.2372,259.65,146.79" style="stroke:#A80036;stroke-width:1.0;"/><text fill="#000000" font-family="sans-serif" font-size="13" lengthAdjust="spacingAndGlyphs" textLength="16" x="298" y="113.4951">vm</text><!--MD5=[fe086758f4ca29555b66d6847a5dcab6]
link variable to type--><path codeLine="51" d="M344,69.28 C344,92.89 344,125.43 344,148.55 " fill="none" id="variable-to-type" style="stroke:#A80036;stroke-width:1.0;"/><polygon fill="#A80036" points="344,153.63,348,144.63,344,148.63,340,144.63,344,153.63" style="stroke:#A80036;stroke-width:1.0;"/><!--MD5=[deccdb5d8e0a310b338fceb8dc2ea5b5]
reverse link type to interface--><path codeLine="52" d="M346.43,207.25 C348.2,227.84 350.59,255.71 352.4,276.75 " fill="none" id="type-backto-interface" style="stroke:#A80036;stroke-width:1.0;"/><polygon fill="#A80036" points="345.99,202.18,342.7778,211.4903,346.4194,207.1615,350.7482,210.8032,345.99,202.18" style="stroke:#A80036;stroke-width:1.0;"/><!--MD5=[3a1f4fccbfc08440fa8112499325d77a]
@startuml
abstract abstract_class{
    signature
    body
}
abstract class{}

abstract interface{
    type - intefrace name
}
abstract static_entity
abstract variable{
    name-id
}
abstract type

class object{
    address-id
}

abstract method{}
abstract signature{
    access modyfier
    static/dynamic
    return type
    name
    args - variables
}
abstract body{}
abstract static_method{}
abstract dynamic_method{}
abstract constructor{}

static_entity <|-right- abstract_class
    abstract_class <|-down- class
        class o-down-> method
            method -right-> signature
            method -left-> body
                method <|-down- static_method
                    static_method <|-down- constructor
                method <|-down- dynamic_method
                    _object -up-> dynamic_method: vm
    abstract_class <|-right- interface
            interface o-down-> signature
    abstract_class o-up-> object

ram -right-> system
system *-right-> object
object <|-up- dynamic_entity
object -right-> type
variable -down-> object: vm
variable -down-> type
interface -up-> type
@enduml

PlantUML version 1.2020.22(Sun Dec 06 12:36:27 MSK 2020)
(GPL source distribution)
Java Runtime: OpenJDK Runtime Environment
JVM: OpenJDK 64-Bit Server VM
Default Encoding: Cp1251
Language: en
Country: US
--></g></svg>